<?xml version="1.0" encoding="UTF-8"?>
<svg version="1.1" xmlns="http://www.w3.org/2000/svg" width="500" height="500">
<path d="M0 0 C10.81400002 -0.09284301 21.62790459 -0.16383758 32.4422226 -0.20724869 C37.46422952 -0.22808808 42.48596295 -0.25633898 47.5078125 -0.30175781 C52.35780003 -0.34534579 57.20752514 -0.36916453 62.05769348 -0.37950897 C63.90440499 -0.38687713 65.75110278 -0.4012654 67.59770203 -0.42292023 C70.19239899 -0.45212682 72.78602344 -0.45594887 75.38085938 -0.45410156 C76.51590912 -0.47567322 76.51590912 -0.47567322 77.67388916 -0.49768066 C84.97596315 -0.44174256 91.0567542 2.56946463 96.55078125 7.37109375 C100.52531768 11.83842984 104.73921468 18.12778909 105.28515625 24.140625 C104.94418095 28.75546873 103.59386586 31.72817932 101.4375 35.75 C101.07180908 36.4502832 100.70611816 37.15056641 100.3293457 37.87207031 C94.45356946 48.9740139 87.693389 58.01083001 79 67 C78.00226563 68.05767578 78.00226563 68.05767578 76.984375 69.13671875 C75.35508341 70.82839313 73.76891748 72.45408707 72 74 C71.12730469 74.88171875 70.25460937 75.7634375 69.35546875 76.671875 C63.39552188 80.86366757 55.02747932 79.50754592 48.0625 79.3125 C46.504593 79.28739076 44.94664711 79.2645822 43.38867188 79.24414062 C39.59069904 79.19360879 35.79816957 79.09575217 32 79 C32 84.94 32 90.88 32 97 C24.59495694 100.02047809 19.04163022 102.14777589 11 102.25 C9.783125 102.27578125 8.56625 102.3015625 7.3125 102.328125 C3.57211165 101.95761483 2.46591725 101.80089973 0 99 C-0.60121933 95.86398701 -0.50414179 92.75513252 -0.45410156 89.5715332 C-0.45468567 88.60549164 -0.45526978 87.63945007 -0.45587158 86.64413452 C-0.45308133 83.44598657 -0.42194434 80.2487667 -0.390625 77.05078125 C-0.38316597 74.83546966 -0.37747145 72.62015148 -0.37347412 70.40483093 C-0.35819126 64.57015816 -0.31888625 58.73588279 -0.2746582 52.90136719 C-0.23376287 46.94927344 -0.21547536 40.99711557 -0.1953125 35.04492188 C-0.15239485 23.36310651 -0.0841112 11.68158628 0 0 Z M32 27 C32 35.91 32 44.82 32 54 C36.73324406 54.09210637 41.46334929 54.17165193 46.19677734 54.21972656 C47.80495774 54.23977627 49.41306583 54.26702364 51.02099609 54.30175781 C53.3397002 54.35057264 55.65743625 54.37303428 57.9765625 54.390625 C58.68930328 54.41127014 59.40204407 54.43191528 60.13638306 54.45318604 C65.23916352 54.45545236 68.08390722 53.22088945 72 50 C74.92943165 45.60585253 75.55068312 42.23148965 75 37 C73.81622059 33.26174923 72.98546865 30.78903807 69.89575195 28.31518555 C66.1744493 26.6250534 62.85864857 26.62324281 58.85546875 26.70703125 C58.08568192 26.71127609 57.31589508 26.71552094 56.52278137 26.71989441 C54.07732354 26.73661403 51.63270643 26.7742523 49.1875 26.8125 C47.52410049 26.82755559 45.86068799 26.84124246 44.19726562 26.85351562 C40.13093025 26.88393709 36.06640005 26.94266694 32 27 Z " fill="#565659" transform="translate(190,164)"/>
<path d="M0 0 C-0.91813856 8.15580527 -1.85199572 16.3103586 -3 24.4375 C-3.144375 25.46746094 -3.28875 26.49742187 -3.4375 27.55859375 C-4 30 -4 30 -6 32 C-7.65 30.68 -9.3 29.36 -11 28 C-15.62 32.62 -20.24 37.24 -25 42 C-24.195625 43.7325 -23.39125 45.465 -22.5625 47.25 C-18.19938289 56.64748301 -16.93565072 68.17113257 -19.9765625 78.23046875 C-21.16662084 80.64343979 -22.45240635 82.80268773 -24 85 C-24.556875 85.9075 -25.11375 86.815 -25.6875 87.75 C-35.16562564 96.97196008 -48.67250197 101.17991468 -61.63598633 101.11352539 C-62.38774139 101.11367142 -63.13949646 101.11381744 -63.91403198 101.1139679 C-66.38672826 101.11327395 -68.85934821 101.1055059 -71.33203125 101.09765625 C-73.05124368 101.09579023 -74.77045665 101.09436719 -76.4896698 101.09336853 C-81.00566079 101.08955786 -85.52161942 101.07973997 -90.03759766 101.06866455 C-94.64940961 101.05841924 -99.26122681 101.05386423 -103.87304688 101.04882812 C-112.91537877 101.03811638 -121.95768669 101.0210574 -131 101 C-130.99887207 100.42032471 -130.99774414 99.84064941 -130.99658203 99.2434082 C-131.00874202 96.59860966 -131.06644417 93.95666162 -131.125 91.3125 C-131.12242187 90.40048828 -131.11984375 89.48847656 -131.1171875 88.54882812 C-131.1558282 83.59870151 -131.1558282 83.59870151 -133.32763672 79.32763672 C-135.12068546 77.81548736 -135.12068546 77.81548736 -138 76 C-141.60821373 71.18904836 -141.61201736 66.03209376 -141.4921875 60.20703125 C-140.74704195 55.35175747 -138.55551217 52.29598574 -135 49 C-134.01 48.34 -133.02 47.68 -132 47 C-132.495 48.4540625 -132.495 48.4540625 -133 49.9375 C-134.52021955 55.32935784 -134.85368848 60.54564561 -133 65.875 C-128.67815415 70.46696121 -123.40847556 71.18972638 -117.375 71.375 C-93.26922194 70.64910455 -71.12406914 58.07284275 -53 43 C-52.41444336 42.51595703 -51.82888672 42.03191406 -51.22558594 41.53320312 C-37.4919796 30.34661103 -37.4919796 30.34661103 -26 17 C-25.7715451 14.75637427 -25.7715451 14.75637427 -28 12.875 C-28.99 11.946875 -28.99 11.946875 -30 11 C-26.83392468 9.72769002 -23.66703203 8.45742647 -20.5 7.1875 C-19.613125 6.83107422 -18.72625 6.47464844 -17.8125 6.10742188 C-2.57196101 0 -2.57196101 0 0 0 Z M-61.625 68.4375 C-62.33140625 68.85837891 -63.0378125 69.27925781 -63.765625 69.71289062 C-65.52976395 70.77716364 -67.26746249 71.88502148 -69 73 C-69 73.33 -69 73.66 -69 74 C-62.90501137 74.42034404 -59.87112047 74.07814737 -55 70 C-52.54737042 67.36557376 -52.54737042 67.36557376 -52 64 C-55.61215829 64 -58.60186947 66.59963743 -61.625 68.4375 Z " fill="#F6C61D" transform="translate(321,198)"/>
<path d="M0 0 C1.50433594 0.01353516 1.50433594 0.01353516 3.0390625 0.02734375 C3.80992187 0.03894531 4.58078125 0.05054688 5.375 0.0625 C-5.46542044 8.59844595 -20.25739253 14.11048668 -33.625 17.0625 C-34.45644531 17.25199219 -35.28789062 17.44148438 -36.14453125 17.63671875 C-46.23787638 19.36927721 -55.60113413 17.7795208 -64.625 13.0625 C-64.625 11.0825 -64.625 9.1025 -64.625 7.0625 C-63.944375 7.35125 -63.26375 7.64 -62.5625 7.9375 C-43.37831786 15.28463358 -25.53777772 8.8698554 -7.625 1.0625 C-4.98041621 -0.25979189 -2.94738699 -0.03427194 0 0 Z " fill="#E59201" transform="translate(254.625,271.9375)"/>
<path d="M0 0 C8.3984375 -0.29296875 8.3984375 -0.29296875 11 0 C13.46894264 3.70341396 12.82085415 4.80452324 12 9 C12.33 9.33 12.66 9.66 13 10 C13.1875 12.4375 13.1875 12.4375 13 15 C11 17 11 17 8.3984375 17.1953125 C5.59895833 17.13020833 2.79947917 17.06510417 0 17 C0 11.39 0 5.78 0 0 Z M5 3 C5 4.32 5 5.64 5 7 C5.99 6.67 6.98 6.34 8 6 C7.67 5.01 7.34 4.02 7 3 C6.34 3 5.68 3 5 3 Z M5 10 C5 11.32 5 12.64 5 14 C5.99 13.67 6.98 13.34 8 13 C7.67 12.01 7.34 11.02 7 10 C6.34 10 5.68 10 5 10 Z " fill="#E3B53A" transform="translate(258,312)"/>
<path d="M0 0 C7.51953125 -0.390625 7.51953125 -0.390625 10 0 C12.10143025 2.01955634 12.89220421 3.34163433 13.36328125 6.21875 C13.34652344 6.9715625 13.32976562 7.724375 13.3125 8.5 C13.30863281 9.2528125 13.30476563 10.005625 13.30078125 10.78125 C12.96718674 13.24205108 12.29733479 14.8906643 11 17 C7.42884262 18.58718106 3.99390472 18 0 18 C0 12.06 0 6.12 0 0 Z M5 3 C5 6.63 5 10.26 5 14 C5.99 13.67 6.98 13.34 8 13 C8 10.03 8 7.06 8 4 C7.01 3.67 6.02 3.34 5 3 Z " fill="#E5B539" transform="translate(288,312)"/>
<path d="M0 0 C1.60875 -0.04125 3.2175 -0.0825 4.875 -0.125 C5.77992188 -0.14820313 6.68484375 -0.17140625 7.6171875 -0.1953125 C10 0 10 0 12 2 C12.23046875 5.22265625 12.23046875 5.22265625 12.1875 9.0625 C12.17783203 10.96708984 12.17783203 10.96708984 12.16796875 12.91015625 C12 16 12 16 11 17 C7.3308423 17.14310287 3.67284559 17.04221662 0 17 C0 11.39 0 5.78 0 0 Z M4 3 C4 4.32 4 5.64 4 7 C4.99 7 5.98 7 7 7 C6.67 5.68 6.34 4.36 6 3 C5.34 3 4.68 3 4 3 Z M5 10 C4.67 11.32 4.34 12.64 4 14 C4.99 14 5.98 14 7 14 C6.67 12.68 6.34 11.36 6 10 C5.67 10 5.34 10 5 10 Z " fill="#E4B639" transform="translate(170,312)"/>
<path d="M0 0 C2.09375 -0.3984375 2.09375 -0.3984375 4.5 -0.375 C5.2940625 -0.38273437 6.088125 -0.39046875 6.90625 -0.3984375 C7.5971875 -0.26695312 8.288125 -0.13546875 9 0 C11 3 11 3 11 6 C8.625 6.125 8.625 6.125 6 6 C5.34 5.34 4.68 4.68 4 4 C3.67 7.3 3.34 10.6 3 14 C3.99 14 4.98 14 6 14 C6 13.01 6 12.02 6 11 C5.34 11 4.68 11 4 11 C4 10.01 4 9.02 4 8 C6.31 8 8.62 8 11 8 C11.48176187 14.3833448 11.48176187 14.3833448 9.4375 17 C5.94857191 18.43135511 3.60244028 17.933966 0 17 C-2.23465229 13.64802157 -2.27108649 12.42208754 -2.25 8.5 C-2.25515625 7.5409375 -2.2603125 6.581875 -2.265625 5.59375 C-2 3 -2 3 0 0 Z " fill="#E4B63A" transform="translate(216,312)"/>
<path d="M0 0 C1.60332791 -0.08121924 3.20784026 -0.13929134 4.8125 -0.1875 C6.15248047 -0.23970703 6.15248047 -0.23970703 7.51953125 -0.29296875 C10 0 10 0 11.8046875 1.1328125 C13.52082725 3.81357983 13.36234012 5.90723708 13.3125 9.0625 C13.30863281 10.12597656 13.30476562 11.18945312 13.30078125 12.28515625 C13 15 13 15 11 17 C8.6171875 17.4140625 8.6171875 17.4140625 5.875 17.625 C4.96492187 17.69976562 4.05484375 17.77453125 3.1171875 17.8515625 C2.06917969 17.92503906 2.06917969 17.92503906 1 18 C-0.2039337 14.24600202 -0.09877617 10.66782588 -0.0625 6.75 C-0.05347656 5.48671875 -0.04445312 4.2234375 -0.03515625 2.921875 C-0.02355469 1.95765625 -0.01195312 0.9934375 0 0 Z M5 3 C5 6.63 5 10.26 5 14 C5.99 14 6.98 14 8 14 C8 10.7 8 7.4 8 4 C7.01 3.67 6.02 3.34 5 3 Z " fill="#E5B53A" transform="translate(199,312)"/>
<path d="M0 0 C1.65 0 3.3 0 5 0 C5 4.62 5 9.24 5 14 C5.66 13.67 6.32 13.34 7 13 C7.46954261 9.95418731 7.46954261 9.95418731 7.625 6.4375 C7.69976562 5.23996094 7.77453125 4.04242188 7.8515625 2.80859375 C7.90054687 1.88175781 7.94953125 0.95492188 8 0 C9.65 0 11.3 0 13 0 C12.9132428 2.62664903 12.80642019 5.24978082 12.6875 7.875 C12.65366211 8.99455078 12.65366211 8.99455078 12.61914062 10.13671875 C12.52188055 12.099604 12.26957706 14.05328322 12 16 C9 18 9 18 5.4375 17.75 C2 17 2 17 0 15 C-0.14497985 12.41935871 -0.18677545 9.95056116 -0.125 7.375 C-0.11597656 6.66859375 -0.10695313 5.9621875 -0.09765625 5.234375 C-0.07407603 3.48943902 -0.03820461 1.74467705 0 0 Z " fill="#E3B53A" transform="translate(273,312)"/>
<path d="M0 0 C1.65 0 3.3 0 5 0 C5.04898438 0.92683594 5.09796875 1.85367187 5.1484375 2.80859375 C5.22320312 4.00613281 5.29796875 5.20367187 5.375 6.4375 C5.47941406 8.22994141 5.47941406 8.22994141 5.5859375 10.05859375 C5.72257813 11.02925781 5.85921875 11.99992187 6 13 C6.66 13.33 7.32 13.66 8 14 C8 9.38 8 4.76 8 0 C9.65 0 11.3 0 13 0 C13.1079859 2.43868168 13.18726589 4.87259133 13.25 7.3125 C13.30027344 8.34793945 13.30027344 8.34793945 13.3515625 9.40429688 C13.41485833 12.67985591 13.44915893 14.49875042 11.21484375 16.9921875 C7.89814823 18.50137171 5.46327688 17.84948301 2 17 C0.47893366 13.95786733 0.62570662 10.71952428 0.4375 7.375 C0.39431641 6.66859375 0.35113281 5.9621875 0.30664062 5.234375 C0.20055249 3.48981463 0.09977111 1.74493303 0 0 Z " fill="#E4B63A" transform="translate(184,312)"/>
<path d="M0 0 C1.60875 -0.04125 3.2175 -0.0825 4.875 -0.125 C5.77992188 -0.14820313 6.68484375 -0.17140625 7.6171875 -0.1953125 C10 0 10 0 12 2 C12.37109375 4.93359375 12.37109375 4.93359375 12.4375 8.4375 C12.47746094 9.59121094 12.51742188 10.74492187 12.55859375 11.93359375 C12 15 12 15 9.91015625 16.91015625 C7 18 7 18 0 18 C0 12.06 0 6.12 0 0 Z M4 3 C4 6.63 4 10.26 4 14 C5.32 13.67 6.64 13.34 8 13 C8.020625 11.72125 8.04125 10.4425 8.0625 9.125 C8.07410156 8.40570313 8.08570313 7.68640625 8.09765625 6.9453125 C8.12649242 4.91814596 8.12649242 4.91814596 7 3 C6.01 3 5.02 3 4 3 Z " fill="#E4B53A" transform="translate(303,312)"/>
<path d="M0 0 C0.99 0.33 1.98 0.66 3 1 C3 1.99 3 2.98 3 4 C0.98046875 5.9453125 0.98046875 5.9453125 -1.8125 8.125 C-2.8128125 8.91519531 -3.813125 9.70539063 -4.84375 10.51953125 C-5.36582031 10.92768066 -5.88789063 11.33583008 -6.42578125 11.75634766 C-8.92472683 13.73054567 -11.36331731 15.77712153 -13.8125 17.8125 C-17.42785333 20.77522508 -21.03133714 23.53299336 -25 26 C-25.66 25.67 -26.32 25.34 -27 25 C-24.78267011 19.57986027 -22.01199515 16.98146325 -17.4375 13.625 C-16.17909068 12.67526945 -14.9212824 11.724742 -13.6640625 10.7734375 C-13.0443457 10.30905273 -12.42462891 9.84466797 -11.78613281 9.36621094 C-8.41952327 6.79109516 -5.21113559 4.01723846 -1.98828125 1.265625 C-1.33214844 0.84796875 -0.67601562 0.4303125 0 0 Z " fill="#E69302" transform="translate(294,241)"/>
<path d="M0 0 C3.96 0 7.92 0 12 0 C12 0.99 12 1.98 12 3 C9.69 3 7.38 3 5 3 C5 4.32 5 5.64 5 7 C6.98 7 8.96 7 11 7 C11 7.99 11 8.98 11 10 C9.02 10 7.04 10 5 10 C5 11.32 5 12.64 5 14 C7.31 14 9.62 14 12 14 C11.67 15.32 11.34 16.64 11 18 C9.35425434 18.02688151 7.70838587 18.04634123 6.0625 18.0625 C5.14597656 18.07410156 4.22945312 18.08570313 3.28515625 18.09765625 C1 18 1 18 0 17 C-0.07325168 14.13732433 -0.09238205 11.299281 -0.0625 8.4375 C-0.05798828 7.63119141 -0.05347656 6.82488281 -0.04882812 5.99414062 C-0.03700518 3.99606244 -0.01906914 1.99802217 0 0 Z " fill="#E4B539" transform="translate(229,312)"/>
<path d="M0 0 C2.475 0.495 2.475 0.495 5 1 C5 1.99 5 2.98 5 4 C5.66 4 6.32 4 7 4 C7.33 2.68 7.66 1.36 8 0 C9.32 0 10.64 0 12 0 C11.55171782 2.61497941 11.03223556 4.92344056 10 7.375 C8.78812551 10.55617053 8.39655973 13.62924226 8 17 C6.68 17 5.36 17 4 17 C3.81824219 16.11248047 3.81824219 16.11248047 3.6328125 15.20703125 C2.72744944 10.93789621 1.66507747 7.04375957 0 3 C0 2.01 0 1.02 0 0 Z " fill="#E4B539" transform="translate(318,312)"/>
<path d="M0 0 C4.29 0 8.58 0 13 0 C13 0.99 13 1.98 13 3 C11.68 3 10.36 3 9 3 C9 7.62 9 12.24 9 17 C7.35 17 5.7 17 4 17 C4 12.38 4 7.76 4 3 C2.68 3 1.36 3 0 3 C0 2.01 0 1.02 0 0 Z " fill="#E3B43B" transform="translate(243,312)"/>
</svg>
